<?xml version="1.0" encoding="utf-8"?>
<!-- Generator: Adobe Illustrator 18.1.1, SVG Export Plug-In . SVG Version: 6.00 Build 0)  -->
<svg version="1.1" id="proficiency_icons" xmlns="http://www.w3.org/2000/svg" xmlns:xlink="http://www.w3.org/1999/xlink" x="0px"
	 y="0px" viewBox="0 0 300 300" style="enable-background:new 0 0 300 300;" xml:space="preserve">
<style type="text/css">
	.st0{fill:#FFFFFF;}
	.st1{fill:#666665;}
</style>
<polygon id="white" class="st0" points="49.7,55.9 68.3,258.6 150,280.3 231.7,258.6 250.3,55.9 "/>
<path id="grey" class="st1" d="M210,25.9l-12.4-12.4H210V0h-31c0,0,0,6.2,0,13.4c4.1,4.1,6.2,6.2,12.4,12.4c-3.1,0-12.4,0-12.4,0
	v12.4h31V25.9z M165.5,25.9l-12.4-12.4h12.4V0h-31c0,0,0,6.2,0,13.4c4.1,4.1,6.2,6.2,12.4,12.4c-3.1,0-12.4,0-12.4,0v12.4h31V25.9z
	 M49.7,55.9l18.6,202.8l81.7,21.7l81.7-21.7l18.6-202.8H49.7L49.7,55.9z M210,122.1l-60,25.9h-1h59l-6.2,76.6L150,239l0,0
	l-50.7-14.5l-3.1-38.3H121l2.1,19.7l27.9,7.2h1l27.9-8.3l2.1-32.1H95.2l-2.1-24.8l57.9-24.8l3.1-1H151H91l-4.1-24.8h126.2L210,122.1
	z M121,25.9h-17.6V13.4H121V0H90v37.2h31V25.9z"/>
</svg>
