<?xml version="1.0" encoding="utf-8"?>
<!-- Generator: Adobe Illustrator 18.1.1, SVG Export Plug-In . SVG Version: 6.00 Build 0)  -->
<svg version="1.1" id="proficiency_icons" xmlns="http://www.w3.org/2000/svg" xmlns:xlink="http://www.w3.org/1999/xlink" x="0px"
	 y="0px" viewBox="0 0 300 300" style="enable-background:new 0 0 300 300;" xml:space="preserve">
<style type="text/css">
	.st0{fill:#FFFFFF;}
	.st1{fill:#666665;}
</style>
<polygon id="white" class="st0" points="49.7,55.9 68.3,259.7 150,282.4 231.7,259.7 250.3,55.9 "/>
<path id="grey" class="st1" d="M164.5,19.7l8.3,13.4l0,0l8.3-13.4v18.6h12.4V0H180l-8.3,13.4L163.4,0H150v38.3h12.4V19.7H164.5z
	 M122.1,39.3h12.4V13.4h11.4V1h-35.2v12.4h11.4L122.1,39.3L122.1,39.3z M231.7,25.9h-17.6V0h-12.4v38.3h31L231.7,25.9L231.7,25.9z
	 M80.7,25.9h11.4v12.4h12.4V0H92.1v12.4H80.7V0H68.3v38.3h12.4V25.9z M49.7,55.9l18.6,203.8l81.7,22.8l81.7-22.8l18.6-203.8H49.7z
	 M210,122.1h-96.2l2.1,25.9h91l-7.2,76.6L147.9,239l0,0l-51.7-14.5l-3.1-40.3h24.8l2.1,20.7l27.9,7.2l0,0l27.9-7.2l3.1-32.1H92.1
	l-7.2-75.5H210L210,122.1z"/>
</svg>
