<?xml version="1.0" encoding="utf-8"?>
<!-- Generator: Adobe Illustrator 18.1.1, SVG Export Plug-In . SVG Version: 6.00 Build 0)  -->
<svg version="1.1" id="proficiency_icons" xmlns="http://www.w3.org/2000/svg" xmlns:xlink="http://www.w3.org/1999/xlink" x="0px"
	 y="0px" viewBox="0 0 300 300" style="enable-background:new 0 0 300 300;" xml:space="preserve">
<style type="text/css">
	.st0{fill:#FFFFFF;}
	.st1{fill:#666665;}
</style>
<rect id="white" x="5.7" class="st0" width="288.6" height="281.4"/>
<path id="grey" class="st1" d="M210.5,220.3h30V106.6h-30V220.3z M226,90c10.3,0,17.6-6.2,17.6-15.5S237.4,59,227.1,59
	s-16.6,6.2-16.6,15.5C209.5,83.8,215.7,90,226,90z M5.7,0v281.4h288.6V0H5.7z M271.6,257.6H27.4V22.8h244.1L271.6,257.6L271.6,257.6
	z M100.9,176.9h51.7l14.5,44.5h32.1L146.4,63.1h-37.2L57.4,221.4h30L100.9,176.9z M119.5,114.8c3.1-9.3,5.2-20.7,8.3-30
	c3.1,9.3,5.2,19.7,8.3,30l12.4,39.3h-41.4L119.5,114.8z"/>
</svg>
