<?xml version="1.0" encoding="utf-8"?>
<!-- Generator: Adobe Illustrator 18.1.1, SVG Export Plug-In . SVG Version: 6.00 Build 0)  -->
<svg version="1.1" id="proficiency_icons" xmlns="http://www.w3.org/2000/svg" xmlns:xlink="http://www.w3.org/1999/xlink" x="0px"
	 y="0px" viewBox="0 0 300 300" style="enable-background:new 0 0 300 300;" xml:space="preserve">
<style type="text/css">
	.st0{fill:#FFFFFF;}
	.st1{fill:#666665;}
</style>
<rect id="white" x="5.7" class="st0" width="288.6" height="281.4"/>
<path id="grey" class="st1" d="M5.7,0v281.4h288.6V0H5.7z M271.6,257.6H27.4V22.8h244.1L271.6,257.6L271.6,257.6z M107.1,64.1H80.2
	v150h26.9V64.1z M168.1,217.2c15.5,0,29-7.2,35.2-19.7l1,17.6h24.8c0-7.2-1-18.6-1-31V56.9h-26.9v61c-5.2-8.3-15.5-14.5-31-14.5
	c-25.9,0-48.6,21.7-48.6,57.9C122.6,195.5,142.2,217.2,168.1,217.2z M177.4,124.1c13.4,0,21.7,8.3,23.8,18.6c0,2.1,1,5.2,1,7.2v17.6
	c0,2.1,0,6.2-1,8.3c-2.1,11.4-13.4,18.6-23.8,18.6c-17.6,0-26.9-14.5-26.9-34.1S158.8,124.1,177.4,124.1z"/>
</svg>
