<?xml version="1.0" encoding="utf-8"?>
<!-- Generator: Adobe Illustrator 18.1.1, SVG Export Plug-In . SVG Version: 6.00 Build 0)  -->
<svg version="1.1" id="proficiency_icons" xmlns="http://www.w3.org/2000/svg" xmlns:xlink="http://www.w3.org/1999/xlink" x="0px"
	 y="0px" viewBox="0 0 300 300" style="enable-background:new 0 0 300 300;" xml:space="preserve">
<style type="text/css">
	.st0{fill:#FFFFFF;}
	.st1{fill:#666665;}
</style>
<g>
	<rect id="white" x="5.7" class="st0" width="288.6" height="281.4"/>
	<path id="grey" class="st1" d="M199.1,198.6c-10.3,0-21.7-4.1-27.9-8.3L166,211c8.3,4.1,20.7,8.3,33.1,8.3
		c29,0,44.5-14.5,44.5-34.1c1-16.6-9.3-26.9-29-34.1c-14.5-5.2-19.7-8.3-19.7-15.5s5.2-11.4,15.5-11.4c10.3,0,18.6,3.1,22.8,6.2
		l5.2-19.7c-6.2-3.1-16.6-7.2-29-7.2c-25.9,0-41.4,15.5-41.4,34.1c0,13.4,9.3,24.8,31,32.1c13.4,4.1,18.6,8.3,18.6,15.5
		S212.6,198.6,199.1,198.6z M5.7,0v281.4h288.6V0H5.7z M271.6,257.6H27.4V22.8h244.1L271.6,257.6L271.6,257.6z M84.3,158.3
		c3.1,1,8.3,1,13.4,1c19.7,0,37.2-5.2,48.6-16.6c8.3-8.3,13.4-20.7,13.4-34.1c1-14.5-5.2-26.9-14.5-34.1
		c-9.3-8.3-24.8-12.4-45.5-12.4c-18.6,0-33.1,1-42.4,3.1v151h27.9v-57.9H84.3z M84.3,84.8c3.1-1,8.3-1,15.5-1c19.7,0,31,9.3,31,25.9
		c0,17.6-12.4,27.9-33.1,27.9c-5.2,0-10.3,0-13.4-1V84.8z"/>
</g>
</svg>
