<?xml version="1.0" encoding="utf-8"?>
<!-- Generator: Adobe Illustrator 18.1.1, SVG Export Plug-In . SVG Version: 6.00 Build 0)  -->
<svg version="1.1" id="proficiency_icons" xmlns="http://www.w3.org/2000/svg" xmlns:xlink="http://www.w3.org/1999/xlink" x="0px"
	 y="0px" viewBox="0 0 300 300" style="enable-background:new 0 0 300 300;" xml:space="preserve">
<style type="text/css">
	.st0{fill:#FFFFFF;}
	.st1{fill:#666665;}
</style>
<g>
	<path id="white" class="st0" d="M190.3,2L190.3,2c25.9,19.7,87.9,69.3,87.9,69.3s-13.4,112.8-17.6,157.2
		c-60,17.6-120,34.1-180,50.7c-5.2-17.6-39.3-108.6-39.3-108.6S26.9,61,21.7,23.7C76.6,16.5,133.4,10.3,190.3,2z"/>
	<path id="grey" class="st1" d="M190.3,2L190.3,2c25.9,19.7,87.9,69.3,87.9,69.3s-13.4,112.8-17.6,157.2c-60,17.6-120,34.1-180,50.7
		c-5.2-17.6-39.3-108.6-39.3-108.6S26.9,61,21.7,23.7C76.6,16.5,133.4,10.3,190.3,2z M185.2,18.6C136.6,25.8,87.9,32,38.3,37.2
		c3.1,8.3,7.2,16.6,10.3,23.8c30-5.2,62.1-9.3,92.1-13.4c5.2-1,11.4-2.1,13.4-2.1c3.1,1,8.3,6.2,10.3,9.3c10.3,11.4,18.6,20.7,30,30
		c19.7-4.1,41.4-7.2,61-11.4C234.8,55.8,209,37.2,185.2,18.6z M157.2,88.9c-32.1,5.2-67.2,12.4-100.3,17.6
		c3.1,9.3,6.2,17.6,10.3,25.9c18.6-3.1,36.2-7.2,53.8-10.3c5.2,8.3,9.3,17.6,15.5,23.8c18.6-4.1,39.3-8.3,57.9-12.4
		C182.1,118.9,168.6,103.4,157.2,88.9z M131.4,183c-1-3.1-5.2-14.5-8.3-13.4c-14.5,4.1-33.1,7.2-49.7,11.4
		c2.1,9.3,6.2,18.6,9.3,27.9c18.6-4.1,36.2-9.3,53.8-13.4C135.5,191.3,133.4,187.2,131.4,183z"/>
</g>
</svg>
